<svg clip-rule="evenodd" fill-rule="evenodd" stroke-linejoin="round" stroke-miterlimit="2" viewBox="0 0 1227 217" xmlns="http://www.w3.org/2000/svg" xmlns:xlink="http://www.w3.org/1999/xlink"><linearGradient id="a"><stop offset="0" stop-color="#ff00a0"/><stop offset="1" stop-color="#9600ff"/></linearGradient><linearGradient id="b" gradientTransform="matrix(433.348 750.581 -750.581 433.348 203.348 114.697)" gradientUnits="userSpaceOnUse" x1="0" x2="1" xlink:href="#a" y1="0" y2="0"/><linearGradient id="c" gradientTransform="matrix(436.412 755.888 -755.888 436.412 3824.83 107.173)" gradientUnits="userSpaceOnUse" x1="0" x2="1" xlink:href="#a" y1="0" y2="0"/><g transform="scale(.958493 .337798)"><path d="m0 0h1280v640h-1280z" fill="none"/><path d="m49.626 11.564c.018.068.028.138.028.209v10.972c0 .286-.154.552-.402.694l-9.209 5.302v10.509c0 .286-.152.55-.4.694l-19.223 11.066c-.044.025-.092.041-.14.058-.018.006-.035.017-.054.022-.134.035-.276.035-.41 0-.022-.006-.042-.018-.063-.026-.044-.016-.09-.03-.132-.054l-19.219-11.066c-.248-.143-.402-.408-.402-.694v-32.916c0-.072.01-.142.028-.21.006-.023.02-.044.028-.067.015-.042.029-.085.051-.124.015-.026.037-.047.055-.071.023-.032.044-.065.071-.093.023-.023.053-.04.079-.06.029-.024.055-.05.088-.069h.001l9.61-5.533c.247-.142.553-.142.8 0l9.61 5.533h.002c.032.02.059.045.088.068.026.02.055.038.078.06.028.029.048.062.072.094.017.024.04.045.054.071.023.04.036.082.052.124.008.023.022.044.028.068.018.068.028.138.028.209v20.559l8.008-4.611v-10.51c0-.07.01-.141.028-.208.007-.024.02-.045.028-.068.016-.042.03-.085.052-.124.015-.026.037-.047.054-.071.024-.032.044-.065.072-.093.023-.023.052-.04.078-.06.03-.024.056-.05.088-.069h.001l9.611-5.533c.247-.143.553-.143.8 0l9.61 5.533c.034.02.06.045.09.068.025.02.054.038.077.06.028.029.048.062.072.094.018.024.04.045.054.071.023.039.036.082.052.124.009.023.022.044.028.068zm-1.574 10.718v-9.124l-3.363 1.936-4.646 2.675v9.124l8.01-4.611zm-9.61 16.505v-9.13l-4.57 2.61-13.05 7.448v9.216zm-36.84-31.068v31.068l17.618 10.143v-9.214l-9.204-5.209-.003-.002-.004-.002c-.031-.018-.057-.044-.086-.066-.025-.02-.054-.036-.076-.058l-.002-.003c-.026-.025-.044-.056-.066-.084-.02-.027-.044-.05-.06-.078l-.001-.003c-.018-.03-.029-.066-.042-.1-.013-.03-.03-.058-.038-.09v-.001c-.01-.038-.012-.078-.016-.117-.004-.03-.012-.06-.012-.09v-21.483l-4.645-2.676-3.363-1.934zm8.81-5.994-8.007 4.609 8.005 4.609 8.006-4.61-8.006-4.608zm4.164 28.764 4.645-2.674v-20.096l-3.363 1.936-4.646 2.675v20.096zm24.667-23.325-8.006 4.609 8.006 4.609 8.005-4.61zm-.801 10.605-4.646-2.675-3.363-1.936v9.124l4.645 2.674 3.364 1.937zm-18.422 20.561 11.743-6.704 5.87-3.35-8-4.606-9.211 5.303-8.395 4.833z" fill="#ff2d20" transform="matrix(2.728938944 0 0 7.743328288 8.20313316 13.22046701235)"/><path d="m420 257.8 233.3 129.2v-51.8l-233.3-128.9c-34.7 19.2-202.4 111.9-233.3 128.9 28.7 15.9 330.1 182.4 513.3 283.6v51.6c-24.9 13.8-280 154.7-280 154.7-69.8-38.5-210.3-116.1-280-154.7v-154.7l280 154.7 46.7-25.8-373.4-206.2v257.9l326.7 180.4c32.2-17.8 302.8-167.3 326.6-180.5v-103.1l-466.6-257.9zm-326.7 25.8v103.2l466.6 257.9-140 77.4-233.3-129.2v51.8l233.3 128.9c34.7-19.2 202.4-111.9 233.3-128.9-28.7-15.9-330-182.4-513.2-283.7v-51.6c14.881-8.247 111.974-61.886 187.704-103.719 50.991-28.167 92.296-50.981 92.296-50.981 69.7 38.6 210.2 116.2 280 154.7v154.7l-280-154.7-46.7 25.8 373.3 206.3v-257.9l-326.6-180.5c-32.3 17.9-302.8 167.4-326.7 180.5zm326.7-283.6-420 232.1v515.7l420 232.1 420-232v-515.8zm373.2 722-373.2 206.3-373.3-206.3v-464.1l373.3-206.3 373.3 206.3z" fill="url(#b)" fill-rule="nonzero" transform="matrix(.1389529538 0 0 .3942771751 251.68003643 17.95406666235)"/><path d="m197.813 212.76h12.147v12.147h-12.147z" fill="#564b52" transform="matrix(.7377247331 2.09328420745 -.7377247331 2.09328420745 234.6657957 -673.74325620265)"/><path d="m197.813 212.76h12.147v12.147h-12.147z" fill="#564b52" transform="matrix(.7377247331 2.09328420745 -.7377247331 2.09328420745 203.9040952 -673.74325620265)"/><path d="m197.813 212.76h12.147v12.147h-12.147z" fill="#564b52" transform="matrix(.7377247331 2.09328420745 -.7377247331 2.09328420745 173.1423947 -673.74325620265)"/><g fill-rule="nonzero"><path d="m1433.5 444.7c75 11.9 148.7 64.2 147.5 141.6 0 47.6-20.2 91.6-57.1 122.5-129.7 102.4-359.3 40.5-362.9-132h119c4.8 44 40.5 79.7 88 78.5 50 0 94-20.2 94-69 0-22.6-13.1-34.5-34.5-45.2-79.7-32.1-197.5-30.9-246.3-110.6-29.7-53.5-5.9-126.1 41.6-164.2 39.3-32.1 90.4-45.2 145.2-45.2 97.6-1.2 202.3 61.9 202.3 159.4h-121.4c-15.5-54.7-92.8-71.4-139.2-41.6-23.8 15.5-33.3 44-10.7 61.9 35.7 28.5 89.3 36.8 134.5 43.9z" transform="matrix(.2550795469 0 0 .72378485255 111.71069977 -144.90284195)"/><path d="m1928.4 349.6v198.6c-5.9 141.6-199.9 141.6-204.6 0v-198.7h-107.1v198.7c0 21.4 3.6 42.8 9.5 63.1 27.4 86.9 108.3 146.3 199.9 146.3s172.5-59.5 199.9-146.3c5.9-20.2 9.5-41.6 9.5-63.1v-198.6z" transform="matrix(.2550795469 0 0 .72378485255 111.71069977 -144.90284195)"/><path d="m2292.5 349.6c-91.6 0-172.5 59.5-199.9 146.3-5.9 20.2-9.5 41.6-9.5 63.1v198.7h107.1v-198.7c2.4-71.4 52.4-107.1 102.3-107.1z" transform="matrix(.2550795469 0 0 .72378485255 111.71069977 -144.90284195)"/><path d="m2750.6 349.6c123.7-3.6 232 115.4 205.8 241.5h-304.6c28.6 78.5 132.1 95.2 180.8 28.6h116.6c-48.8 145.2-242.7 184.4-347.4 78.5-134.4-132.1-33.3-349.8 148.8-348.6zm98.7 167.7c-35.7-92.8-161.8-92.8-197.5 0z" transform="matrix(.2550795469 0 0 .72378485255 111.71069977 -144.90284195)"/><path d="m2520.9 349.6c-91.6 0-172.5 59.5-199.9 146.3-5.9 20.2-9.5 41.6-9.5 63.1v198.7h107.1v-198.7c2.4-71.4 52.3-107.1 102.3-107.1z" transform="matrix(.2550795469 0 0 .72378485255 111.71069977 -144.90284195)"/><path d="m3472.8 221.1h107.1v537.7h-107.1z" transform="matrix(.2550795469 0 0 .72378485255 111.71069977 -144.90284195)"/><path d="m3938 241.3c-33.3-13.1-70.2-20.2-110.6-20.2h-199.9v536.6h199.9c42.8 0 80.9-7.1 114.2-20.2 102.3-39.3 159.4-140.4 158.2-248.7 1.2-108.3-59.5-208.3-161.8-247.5zm47.6 248.6c1.1 84.5-69.1 161.9-154.7 160.7h-97.6v-321.3h97.6c85.7-1.2 155.9 77.3 154.7 160.6zm499.6-19c84.5-64.2 39.3-205.8-52.4-238-20.2-8.3-41.6-11.9-64.2-11.9h-221.3v536.6h251c42.8 0 83.3-15.5 113-44 66.8-64.2 59.6-195.1-26.1-242.7zm-232-141.6h111.8c28.6 0 52.3 20.2 51.2 50 1.2 28.6-22.6 52.4-51.2 51.2h-111.8zm139.2 321.3h-138v-116.6h138c28.6-1.2 52.4 30.9 51.2 59.5 1.2 27.3-22.6 58.3-51.2 57.1z" fill="url(#c)" transform="matrix(.2550795469 0 0 .72378485255 111.71069977 -144.90284195)"/><path d="m3425.2 554.2c0-113-92.8-204.6-208.2-204.6s-208.2 91.6-208.2 204.6 92.7 204.6 208.2 204.6c36.9 0 71.4-9.5 101.1-26.2v26.2h107.1zm-209.4 105.9c-60.7 0-108.3-47.6-108.3-107.1 0-58.3 48.8-107.1 108.3-107.1 60.7 0 108.3 47.6 108.3 107.1s-48.9 107.1-108.3 107.1z" transform="matrix(.2550795469 0 0 .72378485255 111.71069977 -144.90284195)"/><path d="m.083 0h.122v-.424h.102v-.094h-.104v-.045c0-.042.022-.064.069-.064.013 0 .027.001.037.002v-.085c-.016-.003-.041-.005-.065-.005-.113 0-.161.047-.161.148v.049h-.07v.094h.07z" transform="matrix(86.94163189 0 0 246.695734655 406.754020098 622.01549424)"/><path d="m.279.01c.152 0 .25-.101.25-.269v-.001c0-.167-.1-.268-.251-.268-.15 0-.25.102-.25.268v.001c0 .168.098.269.251.269zm0-.098c-.077 0-.127-.062-.127-.171v-.001c0-.107.051-.17.126-.17.077 0 .127.062.127.17v.001c0 .109-.049.171-.126.171z" transform="matrix(86.94163189 0 0 246.695734655 432.479711498 622.01549424)"/><path d="m.05 0h.121v-.3c0-.077.042-.12.111-.12.02 0 .039.003.049.006v-.109c-.009-.003-.023-.005-.039-.005-.059 0-.102.037-.118.1h-.003v-.09h-.121z" transform="matrix(86.94163189 0 0 246.695734655 480.959775898 622.01549424)"/><path d="m.062 0h.446v-.106h-.32v-.599h-.126z" transform="matrix(86.94163189 0 0 246.695734655 528.251521598 622.01549424)"/><path d="m.203.009c.068 0 .126-.034.155-.089h.003v.08h.122v-.356c0-.104-.084-.172-.213-.172-.131 0-.211.069-.218.16l-.001.006h.113l.001-.004c.008-.038.043-.065.101-.065.061 0 .095.032.095.084v.035l-.135.009c-.125.008-.197.063-.197.155v.001c0 .092.07.156.174.156zm-.053-.161v-.001c0-.041.033-.067.093-.071l.118-.007v.039c0 .062-.052.108-.122.108-.053 0-.089-.026-.089-.068z" transform="matrix(86.94163189 0 0 246.695734655 574.864078998 622.01549424)"/><path d="m.05 0h.121v-.3c0-.077.042-.12.111-.12.02 0 .039.003.049.006v-.109c-.009-.003-.023-.005-.039-.005-.059 0-.102.037-.118.1h-.003v-.09h-.121z" transform="matrix(86.94163189 0 0 246.695734655 621.009237998 622.01549424)"/><path d="m.203.009c.068 0 .126-.034.155-.089h.003v.08h.122v-.356c0-.104-.084-.172-.213-.172-.131 0-.211.069-.218.16l-.001.006h.113l.001-.004c.008-.038.043-.065.101-.065.061 0 .095.032.095.084v.035l-.135.009c-.125.008-.197.063-.197.155v.001c0 .092.07.156.174.156zm-.053-.161v-.001c0-.041.033-.067.093-.071l.118-.007v.039c0 .062-.052.108-.122.108-.053 0-.089-.026-.089-.068z" transform="matrix(86.94163189 0 0 246.695734655 649.919080998 622.01549424)"/><path d="m.189 0h.134l.182-.518h-.127l-.119.405h-.003l-.12-.405h-.13z" transform="matrix(86.94163189 0 0 246.695734655 695.936957398 622.01549424)"/><path d="m.277.01c.136 0 .212-.08.228-.159l.001-.006h-.113l-.001.004c-.012.034-.052.067-.112.067-.079 0-.129-.054-.131-.145h.362v-.039c0-.156-.092-.26-.24-.26-.147 0-.243.107-.243.27v.001c0 .164.094.267.249.267zm-.004-.443c.064 0 .111.041.12.123h-.243c.01-.08.058-.123.123-.123z" transform="matrix(86.94163189 0 0 246.695734655 738.813457498 622.01549424)"/><path d="m.053-.705h.122v.705h-.122z" transform="matrix(86.94163189 0 0 246.695734655 785.722312098 622.01549424)"/></g></g></svg>